<svg width="68" height="68" viewBox="0 0 68 68" fill="none" xmlns="http://www.w3.org/2000/svg">
<path d="M65.327 20.7651C62.7437 14.6609 58.4363 9.47418 53.0112 5.80789C47.5871 2.1416 41.0347 -0.00106211 34.0005 3.94966e-07C29.3115 3.94966e-07 24.8333 0.951071 20.7642 2.67192C14.662 5.25526 9.47418 9.56383 5.80895 14.9878C2.14266 20.412 -0.00106161 26.9652 8.88286e-07 33.9995C-0.00106161 38.6885 0.951071 43.1658 2.67192 47.2349C5.25526 53.338 9.5637 58.5258 14.9888 62.191C20.412 65.8573 26.9652 68 34.0005 68C38.6885 68 43.1669 67.0479 47.2349 65.327C53.3379 62.7435 58.5248 58.4363 62.191 53.0112C65.8573 47.587 68 41.0348 68 33.9995C68 29.3113 67.0479 24.8331 65.327 20.7651ZM39.665 45.7639C38.3448 47.6324 39.3909 50.454 37.847 52.0737C36.2929 53.6997 35.5295 53.1893 34.5413 55.4891C34.4181 55.7779 32.7298 59.5729 32.2479 58.3687C32.6856 59.4547 32.2817 60.4786 31.0121 60.4775C29.752 60.4754 31.241 61.5287 30.0178 61.8282C29.6549 61.9252 29.6149 62.6644 29.7699 63.6153C28.843 63.4846 27.9278 63.3117 27.0295 63.0978C25.7999 59.2311 25.1188 54.6611 25.1103 53.4558C25.0904 49.2813 24.2425 50.9283 22.1959 47.8567C20.8072 45.7669 19.6074 43.5146 19.6663 40.966C19.6516 41.4248 22.3457 34.5108 20.3981 35.8278C18.032 37.4295 17.605 33.6071 15.3284 33.2802C14.1663 33.1136 14.5049 31.8409 13.1941 32.0486C12.0153 32.2352 10.6571 31.0184 9.75667 30.3668C9.17469 29.9428 8.08217 23.8587 7.18914 23.8736C5.92596 23.8809 8.16558 28.1177 7.70472 28.22C7.14903 28.3317 6.29173 26.1585 5.69819 24.2869C5.92078 23.6332 6.16635 22.9879 6.43424 22.3562C8.70334 16.9891 12.4994 12.4192 17.276 9.19262C18.8999 8.09492 20.6396 7.15859 22.4682 6.3932C22.5567 6.38881 22.6463 6.38363 22.7348 6.37088C24.3872 6.17591 29.2303 4.27789 30.5842 5.75729C31.1536 6.36252 23.2621 9.22635 23.0322 10.4549C22.8815 11.2563 24.9776 11.116 25.1612 11.1286C27.268 11.2563 24.5465 13.3651 25.8318 13.7278C27.7667 14.2465 29.6921 5.48303 31.1757 9.94234C31.7822 11.7528 34.3717 8.57371 34.5553 10.8027C34.744 13.1279 36.8688 13.712 32.904 14.3435C29.261 14.9297 32.1818 16.4114 29.7966 17.6586C27.54 18.8396 25.5683 19.3931 23.975 21.5104C22.1908 23.8851 22.039 23.8102 21.3347 26.7184C20.9541 28.2948 19.0518 25.644 19.7921 24.638C19.5337 24.986 17.2889 23.8862 17.0631 24.4534C16.6245 25.5533 15.4424 24.9585 14.5104 25.6197C13.3305 26.4527 12.1874 29.1404 13.3716 30.4046C14.3143 31.4191 17.5344 28.2305 17.7105 29.3176C17.8455 30.1548 16.5665 30.7432 16.7068 31.5751C16.9061 32.7772 18.8758 31.2303 18.8758 32.1635C18.8748 32.7646 18.0787 36.0618 19.8154 35.4354C20.7528 35.098 21.0101 35.8161 21.6016 35.6664C22.4104 35.4619 22.8859 33.568 23.855 33.7082C25.0022 33.8737 26.7515 34.3999 27.906 34.7321C29.7914 35.2753 29.6922 36.8664 31.8834 37.1984C34.1219 37.538 33.2383 39.5457 32.9631 40.6675C32.7269 41.6388 43.3978 40.4991 39.665 45.7639ZM52.1033 16.7256C52.1042 16.7256 54.0878 16.7478 54.5084 16.6824C54.9291 16.617 54.9154 15.6269 54.9113 15.4159C54.9081 15.202 53.7725 14.6937 54.0519 14.5566C54.3323 14.4196 55.0335 14.2181 55.2412 14.08C55.3383 14.0157 55.5818 13.8037 55.8443 13.5687C56.7111 14.4933 57.5199 15.474 58.2654 16.5041C58.1283 16.5905 57.987 16.694 57.8847 16.7973C57.6095 17.0768 56.7617 16.7119 56.7617 16.7119C56.3926 17.1063 56.0246 17.5038 55.6535 17.9014C55.471 18.3243 55.2896 18.7491 55.1062 19.1729C55.1062 19.1729 53.8419 19.8004 53.2757 19.8668C52.7094 19.9321 51.7805 19.4238 51.6339 19.2088C51.4927 18.9936 52.1042 16.7234 52.1033 16.7256ZM61.5648 45.6426C61.3866 46.0644 61.1957 46.4799 60.9985 46.8912C60.8004 46.267 60.6042 45.7123 60.4314 45.4118C60.019 44.702 59.4676 43.8491 60.1793 42.1283C60.892 40.4074 59.7806 38.2616 59.2208 37.687C58.6609 37.1145 58.663 36.6832 59.224 35.8207C59.7849 34.9592 59.0848 34.6714 58.5228 34.6714C57.9596 34.6714 57.5368 33.6644 56.8314 33.8078C56.127 33.9502 53.4329 34.6703 52.4323 34.5258C51.4388 34.3834 48.2829 31.3447 48.2765 30.6191C48.2765 29.8948 48.4095 27.1511 48.6941 26.7208C48.981 26.2896 50.5426 24.3241 51.1056 23.4678C51.6687 22.6107 52.5123 21.4729 53.2208 21.3357C53.9325 21.1986 57.1739 20.6608 58.1482 20.3888C59.1247 20.1157 58.9919 20.6408 59.2797 21.2133C59.4673 21.2387 59.653 21.265 59.8396 21.2904C59.8407 21.2904 60.6115 21.4423 61.1019 21.8038C61.202 21.8777 61.3096 21.9483 61.4193 22.019C63.024 25.6863 63.914 29.7343 63.9151 33.9996C63.914 38.136 63.0769 42.0649 61.5648 45.6426Z" fill="#EE558B"/>
</svg>
