<svg width="70" height="61" viewBox="0 0 70 61" fill="none" xmlns="http://www.w3.org/2000/svg">
<path d="M0.594406 22.0638C1.38695 25.1039 2.9021 27.7464 5.13986 29.9914L35 61L64.8601 29.9914C67.0979 27.7464 68.6131 25.1039 69.4056 22.0638C70.1981 19.0238 70.1981 16.0071 69.4056 13.0138C68.6131 10.0205 67.0979 7.40138 64.8601 5.15641C62.6224 2.91144 60.0117 1.39141 57.028 0.59632C54.0443 -0.198773 51.014 -0.198773 47.9371 0.59632C44.8601 1.39141 42.2494 2.91144 40.1049 5.15641L35 11.3301L29.8951 5.15641C27.6573 2.91144 25.0466 1.39141 22.0629 0.59632C19.0793 -0.198773 16.0723 -0.198773 13.042 0.59632C10.0117 1.39141 7.37762 2.91144 5.13986 5.15641C2.9021 7.40138 1.38695 10.0205 0.594406 13.0138C-0.198135 16.0071 -0.198135 19.0238 0.594406 22.0638Z" fill="#EE558B"/>
</svg>
