<svg width="70" height="79" viewBox="0 0 70 79" fill="none" xmlns="http://www.w3.org/2000/svg">
<path d="M64.3454 7.27099L36.0982 0.042792C35.786 -0.014264 35.4662 -0.014264 35.154 0.042792C34.8932 0.00326877 34.628 0.00326877 34.3672 0.042792L5.96261 7.27099C4.1616 7.72237 2.57754 8.79851 1.49045 10.3092C0.403355 11.8198 -0.116763 13.6677 0.0220373 15.5261L1.67438 37.2897C2.33614 45.923 5.34081 54.2094 10.3622 61.2492C15.3836 68.2891 22.2298 73.8134 30.1576 77.2226L33.6197 78.7235C34.056 78.906 34.524 79 34.9966 79C35.4693 79 35.9373 78.906 36.3736 78.7235L39.8356 77.2226C47.7635 73.8134 54.6097 68.2891 59.6311 61.2492C64.6525 54.2094 67.6571 45.923 68.3189 37.2897L69.9713 15.5261C70.1263 13.7097 69.6508 11.8954 68.6255 10.3907C67.6001 8.88614 66.0879 7.78391 64.3454 7.27099ZM49.7497 30.496L34.0131 46.2954C33.6474 46.6656 33.2123 46.9594 32.7328 47.16C32.2534 47.3605 31.7392 47.4637 31.2199 47.4637C30.7005 47.4637 30.1863 47.3605 29.7069 47.16C29.2275 46.9594 28.7923 46.6656 28.4266 46.2954L20.5583 38.3957C19.8175 37.6519 19.4013 36.6432 19.4013 35.5913C19.4013 34.5395 19.8175 33.5307 20.5583 32.7869C21.2991 32.0432 22.3039 31.6253 23.3516 31.6253C24.3992 31.6253 25.404 32.0432 26.1448 32.7869L31.2199 37.9217L44.1632 24.8873C44.904 24.1435 45.9088 23.7256 46.9565 23.7256C48.0041 23.7256 49.0089 24.1435 49.7497 24.8873C50.4905 25.631 50.9067 26.6398 50.9067 27.6916C50.9067 28.7435 50.4905 29.7523 49.7497 30.496Z" fill="#EE558B"/>
</svg>
